<?xml version="1.0" standalone="no"?><!DOCTYPE svg PUBLIC "-//W3C//DTD SVG 1.1//EN" "http://www.w3.org/Graphics/SVG/1.1/DTD/svg11.dtd"><svg t="1604640290039" class="icon" viewBox="0 0 1024 1024" version="1.1" xmlns="http://www.w3.org/2000/svg" p-id="2205" xmlns:xlink="http://www.w3.org/1999/xlink" width="200" height="200"><defs><style type="text/css"></style></defs><path d="M193.3 878.5l6 2.5c16.8 6.1 39.6 10 56.9 10.3l3.2-0.1-1.8 13.1c-2.5 13.5-68.7 4.4-66.6-9.4l2.3-16.4z" fill="#FFFFFF" p-id="2206"></path><path d="M237.6 912.9c-6.8 0-13.9-0.8-19.1-1.7-7.3-1.3-31.1-6.1-29.5-16.6l2.7-19 8.4 3.5c15.7 5.7 38.4 9.8 56.2 10.1l5.4-0.1-2.2 15.4c-1.1 6.5-11.2 8.4-21.9 8.4zM195 881.3l-2 13.9c-0.6 3.6 8.4 9.1 26.2 12.1 20.5 3.5 35.6 1 36.4-3.4l1.5-10.7h-0.8c-18.3-0.3-41.5-4.5-57.7-10.4l-3.6-1.5z" fill="#404040" p-id="2207"></path><path d="M830.8 882.4l2.4 17.4c1.1 8.1-65 19.7-66.6 9.4l-2.3-16.2 2.9 0.4c17.4 1.4 40.1-1 56.6-7.7l7-3.3z" fill="#FFFFFF" p-id="2208"></path><path d="M780.5 915.3c-8.2 0-15.2-1.3-15.8-5.8l-2.6-18.8 5.5 0.7c18.5 1.5 40.4-1.4 55.6-7.5l9.3-4.4 2.8 20.1c0.4 3.3-3.3 6-12.1 8.8-6.7 2.2-15.6 4.1-24.6 5.4-5.3 0.7-12 1.5-18.1 1.5z m-13.8-20l1.9 13.6c0.1 0.4 1.3 1.6 6.4 2.1 18.4 1.9 54.3-6.8 56.2-11.1l-2-14.6-4.6 2.2c-15.7 6.3-38.3 9.4-57.5 7.8h-0.4z" fill="#404040" p-id="2209"></path><path d="M757.7 218.1l88 642.2c4.4 36.7-102.4 42.2-104.7 21.6-2.8-25.5-5.8-64.6-9-110l-1.4-20.4 0.9-0.3c16.1-6.6 25.1-14 25.1-21.9-58.7-248.5-41.9-335.4-7.2-483.8l6.4-27.1 1.9-0.3z" fill="#F9DEDD" p-id="2210"></path><path d="M777.1 895.8c-11.8 0-22.4-1.5-29.4-4.6-5.3-2.3-8.2-5.4-8.6-9.1-3-27.2-6.1-69-9-110.1l-1.5-21.9 2.3-0.9c15.4-6.3 23.6-13.2 23.8-19.8-28-118.5-39.9-204.8-38.6-279.7 1.2-70.4 13.2-126.8 31.5-204.8l6.7-28.4 5.1-0.8L847.7 860c0.9 7.8-2.7 14.9-10.4 20.7-13.5 10-38.7 15.1-60.2 15.1z m-44.3-143l1.3 18.9c2.8 39.1 6 82.7 9 109.9 0.3 2.8 3.5 4.7 6.2 5.9 17.1 7.5 64.9 5.4 85.6-10.1 6.6-4.9 9.6-10.6 8.8-17l-87.2-636.1-5 21.5c-35.9 153.4-50.6 238.1 7.2 482.9l0.1 0.2v0.2c0 8.7-8.8 16.6-26 23.7z" fill="#404040" p-id="2211"></path><path d="M441 258l4.4 11.9 44.6-9.8 0.9 0.3c13.4 3.7 22.4 4.6 32.8 2.3l8-2.3 43.4 9.6 0.9-2.4-1.9 22.2-0.8 9.4-0.6 6.4-0.2 2.4-0.6 7.1c-0.7 8.4-1.3 16.8-1.9 25.3l-0.2 3.8-0.2 2.6-0.9 15.3-0.3 4.2v0.7l-0.1 1c-0.4 7.2-0.7 14.5-1.1 21.9l-0.1 1.9-0.1 1.6-0.2 5.4-0.5 14.1-0.1 5.2-0.1 3.9-0.1 5.7-0.2 9.4-0.1 9.6-0.1 6.2v10.2l0.1 16.7v11.3c0.1 9.7 0.3 19.7 0.6 30.1v2.5c0.2 6.5 0.4 13.1 0.6 19.9l0.3 7.2 0.1 3.1 0.1 3.3 0.3 7.3c0.3 7.1 0.6 14.5 0.9 22l0.1 1.8v1l0.1 2.9 0.8 17.4 0.8 14.2 0.2 4 0.1 2.2 0.2 4c0.5 8.3 1 16.9 1.5 25.7l0.4 6.7 0.2 3.3 0.3 4.7 0.8 12.4c0.6 9.2 1.3 18.7 1.9 28.5l0.6 9-66.5-30.5-65.3 29.9 0.8-8.3c0.7-8.4 1.4-16.7 2.1-24.7l0.1-1.8 0.1-1.6 0.5-6.7 1-13.3 0.2-3.5 0.2-3 0.4-6.3 0.7-9.5 0.3-5.1 0.3-4.1 0.3-5.1 0.4-6.9 0.4-6.7 0.3-5 0.2-3.8 0.2-4.7 0.4-8.3 0.3-5.5 0.1-2.4 0.1-2.9 0.1-3.2 0.5-12.5 0.5-19.9 0.3-18.9v-6.1l0.1-7.4-0.1-13.1v-8.3l-0.1-3.8v-4.4l-0.5-16.1-0.2-7.4-0.1-1.8-0.1-1.9c-0.7-17.5-1.7-33.8-2.9-49.4l-0.2-2-0.1-1.3-0.6-7.9-0.9-11.8-0.4-4.4-0.2-2.1-4-46.6-0.7-8.8-1.1-15.6-0.7-10.4-1-17.9-0.5-9.4-0.3-14.1z" fill="#FFFFFF" p-id="2212"></path><path d="M577 726c-0.3 0-0.6-0.1-0.8-0.2l-65.7-30.1-64.5 29.6c-0.6 0.3-1.4 0.2-2-0.2-0.6-0.4-0.9-1.1-0.8-1.8l0.8-8.3c0.7-8.4 1.4-16.7 2.1-24.7l2.3-30 1.7-25 1.8-32.1 0.9-22.3 0.5-12.5 0.5-19.9 0.3-18.8v-6.1l0.1-7.4-0.1-13.1v-8.3l-0.1-3.8v-4.4l-0.9-27.2c-0.7-15.7-1.6-31.8-2.9-49.3l-2.4-29.5-4-46.6-0.7-8.8L441 299l-1.5-27.3-0.5-13.7c0-1 0.7-1.8 1.6-2 1-0.2 1.9 0.4 2.3 1.3l3.8 10.3 42.8-9.5c0.3-0.1 0.7-0.1 1 0l0.9 0.3c13.7 3.8 22 4.4 31.8 2.3l8-2.3c0.3-0.1 0.7-0.1 1 0l41.6 9.2 0.3-0.8c0.3-0.9 1.3-1.5 2.3-1.3 1 0.2 1.6 1.1 1.6 2.1l-4 47.4c-0.7 8.9-1.3 17.2-1.9 25.3l-1.7 27.6c-0.4 7.2-0.8 14.6-1.1 21.9l-0.8 23-0.5 24.3-0.2 15.8V463l0.2 27.9c0.1 9.7 0.3 19.9 0.6 30.1l0.1 2.4c0.2 6.6 0.4 13.3 0.6 19.8l0.7 20.9c0.3 6.9 0.6 14.3 0.9 22l1.1 23.1 1.3 24.4c0.5 8.3 1 16.9 1.5 25.6l1.7 27c0.6 9.2 1.3 18.7 1.9 28.4l0.6 9c0.1 0.7-0.3 1.4-0.9 1.8-0.3 0.5-0.7 0.6-1.1 0.6z m-66.5-34.5c0.3 0 0.6 0.1 0.8 0.2l63.4 29.1-0.4-5.6c-0.7-9.7-1.3-19.2-1.9-28.5l-1.7-27c-0.5-8.8-1-17.3-1.5-25.7l-1.3-24.4-1.1-23.2c-0.3-7.7-0.7-15.1-0.9-22l-0.7-20.9c-0.2-6.5-0.4-13.2-0.6-19.9l-0.1-2.4c-0.3-10.2-0.4-20.4-0.6-30.1l-0.2-27.9V453l0.1-6.2 0.1-9.6 0.5-24.4 0.8-23c0.3-7.3 0.7-14.7 1.1-22l1.7-27.6c0.6-8.1 1.2-16.4 1.9-25.4l2.1-25.3 1.6-17.9-41.8-9.2-7.6 2.2h-0.1c-10.3 2.3-19.5 1.7-33.8-2.3l-0.4-0.1-44.1 9.7c-1 0.2-2-0.3-2.3-1.3v-0.1 1.1l0.5 9.3 1 17.9 0.7 10.4 1.1 15.6 0.7 8.8 4.5 53 1.8 23.1c1.3 17.5 2.2 33.7 2.9 49.5l0.9 27.3v4.4l0.1 3.8v8.3l0.1 13.1-0.1 7.4v6.1l-0.3 18.9v0.1l-0.5 19.9-0.8 21.1-1 22.4-1.9 32.9-1.5 22.3-1.8 23.5c-0.6 8-1.3 16.3-2.1 24.7l-0.4 4.8 62.2-28.5c0.3-0.1 0.6-0.2 0.9-0.2z m-54.9-143.1z" fill="#404040" p-id="2213"></path><path d="M264.6 219.6l6.1 25.9c34.7 148.4 51.5 235.2-7.2 483.8 0 7.9 9 15.3 25.1 21.9l4.6 1.7v0.4c-5.1 57.4-9.3 105.4-11.6 130.5-0.8 17.5-108.4 1.8-105-22l88-642.2z" fill="#F9DEDD" p-id="2214"></path><path d="M258.2 893.2c-24.4 0-60.6-7.3-76.1-18.6-5.6-4.1-8.2-8.6-7.5-13.2l89.5-652.8 8.5 36.4c18.3 78 30.3 134.4 31.5 204.8 1.3 74.9-10.6 161.2-38.6 279.7 0.2 6.6 8.4 13.5 23.9 19.8l6 2.3-0.2 1.9-3 33.6c-3.8 42.9-6.8 76.9-8.6 96.9-0.1 1.7-1 4.3-5 6.3-4.2 1.9-11.5 2.9-20.4 2.9z m6.9-662.7L178.6 862c-0.4 3 1.6 6.2 5.9 9.4 19.8 14.5 77.5 22.4 92.4 15.2 1.8-0.9 2.7-1.8 2.8-2.9 1.8-20.1 4.8-54 8.6-97l2.9-32.5-3.2-1.2c-17.5-7.2-26.4-15.2-26.4-23.7v-0.3l0.1-0.2c57.8-244.8 43.1-329.4 7.2-482.9l-3.8-15.4z" fill="#404040" p-id="2215"></path><path d="M591.2 153l2.6 0.1c99.2 4.2 169 39.1 162.8 61.6-39.3 168.2-62.6 249.4 0 514.7 0 20.9-64.2 38.9-155.1 46.2l-20.4 1.4C560.9 518.1 564 415.9 572 314.9l4.1-47.5 5.5-15.1 6-18.2 0.6-2.3 0.7-2.3c1.1-3.9 2.1-7.8 3-11.7l0.3-1.4 0.2-0.9 0.3-1.7 1.5-7.7 0.9-7.4 0.3-2.1 0.1-1.3 0.1-1.1 0.1-2.3 0.3-4.8v-2.8l0.1-2-0.1-1.8v-2.9l-0.5-4.6-0.2-2.5-0.2-1-0.1-1.4c-0.5-3.1-1.1-6.3-1.9-9.4l-1.9-5.7z m-162.1 0l-0.6 1.8-1.2 3.8c-0.8 3.1-1.4 6.3-1.9 9.4l-0.1 1.4-0.2 1-0.2 2.5-0.5 4.6v2.9l-0.1 1.8 0.1 2v2.8l0.3 4.8 0.1 2.3 0.1 1.1 0.1 1.3 0.3 2.1 0.9 7.4 1.5 7.7 0.3 1.7 0.2 0.9 0.3 1.4c0.9 3.9 1.9 7.8 3 11.7l0.7 2.3 0.6 2.3 6 18.2 2.1 5.6 0.5 15.3c6.4 137.9 29.8 200.5-1.5 503.9l-21.4-1.5c-90.9-7.4-155.1-25.3-155.1-46.2 62.6-265.3 39.3-346.5 0-514.7-4.8-21.9 63.8-57.2 162.8-61.5l2.9-0.1z" fill="#F9DEDD" p-id="2216"></path><path d="M439.8 779h-0.1l-21.4-1.5c-75.9-6.1-157-22-157-48.2 0-0.2 0-0.3 0.1-0.5 60.5-256.2 40.3-342 3.8-497.6-1.2-5.3-2.5-10.7-3.8-16.1-1-4.4 0.5-9.1 4.3-14 16.6-21.6 78.4-46.4 160.4-50l3-0.1c0.6 0 1.3 0.3 1.6 0.8 0.4 0.5 0.5 1.2 0.3 1.8l-1.7 5.6c-0.7 3-1.4 6.1-1.8 9.2l-0.1 1.3v0.2l-0.2 0.9-0.2 2.2-0.5 4.6v2.9l-0.1 1.7 0.1 1.9v2.8l0.3 4.8 0.1 2.2 0.1 1v0.1l0.1 1.2 0.3 2 0.9 7.4 1.5 7.6 0.3 1.7 0.2 0.9v0.1l0.3 1.4c0.8 3.6 1.8 7.5 2.9 11.5l0.7 2.3v0.1l0.6 2.2 5.9 18.1 2 5.6c0.1 0.2 0.1 0.4 0.1 0.6l0.5 15.3c1.5 32.8 4 61.8 6.5 89.8 7.8 90 15.9 183-8 414.3-0.2 1.1-1 1.9-2 1.9z m-174.6-49.5c0.2 9 15.1 18.2 42 26.1 27.7 8.1 66.1 14.3 111.3 17.9l19.4 1.4c23.6-229.5 15.5-322.1 7.7-411.6-2.4-28.1-5-57.2-6.5-90l-0.5-15-1.9-5.3v-0.1l-6-18.1v-0.1l-0.6-2.2-0.7-2.3c-1.2-4.1-2.2-8.1-3-11.8l-0.3-1.4-0.2-0.9v-0.2l-0.3-1.7-1.5-7.6v-0.1l-0.9-7.4-0.3-2v-0.2l-0.1-1.2-0.1-1v-0.2l-0.1-2.3-0.3-4.8v-3l-0.1-1.9v-0.2l0.1-1.8v-2.9-0.2l0.5-4.6 0.2-2.4v-0.2l0.2-0.9 0.1-1.3c0.5-3.3 1.1-6.6 1.9-9.7v-0.1l0.9-3h-0.2c-47.5 2.1-82.5 10.9-103.6 18-26.1 8.8-45.7 19.9-53.8 30.4-3 4-4.2 7.6-3.5 10.7 1.3 5.4 2.5 10.8 3.8 16.1 18.3 77.9 32.7 139.5 34.7 212.5 2.3 76.5-9.6 164.9-38.3 286.6z m315.9 49.4c-1 0-1.9-0.8-2-1.8-21-269.6-16.5-368.9-9.1-462.4l4.1-47.6c0-0.2 0.1-0.4 0.1-0.5l5.5-15.1 5.9-18.1 0.6-2.2v-0.1l0.7-2.3c1.1-3.9 2.1-7.8 2.9-11.5l0.3-1.3v-0.1l0.2-0.9 0.3-1.6 1.5-7.7 0.9-7.3 0.3-2 0.1-1.2v-0.1l0.1-1 0.1-2.2 0.3-4.8v-2.7l0.1-2-0.1-1.7v-2.9l-0.5-4.6-0.2-2.4-0.2-0.9v-0.2l-0.1-1.4c-0.5-3-1.1-6.1-1.8-9.1l-1.7-5.6c-0.2-0.6-0.1-1.3 0.3-1.8s1-0.8 1.6-0.8l2.6 0.1c83.6 3.6 145.4 28.4 161.1 49.9 3.6 5 4.8 9.7 3.6 14.2-1.3 5.4-2.5 10.8-3.8 16-36.5 155.7-56.7 241.4 3.8 497.6 0 0.2 0.1 0.3 0.1 0.5 0 26.2-81.1 42.1-157 48.2l-20.4 1.4h-0.2zM578 267.7l-4 47.3c-7.4 93.1-11.9 191.9 8.9 459.8l18.4-1.3c45.1-3.6 83.6-9.9 111.3-17.9 26.9-7.9 41.8-17.1 42-26.1-28.7-121.7-40.6-210.1-38.5-286.7 2-73.1 16.5-134.6 34.7-212.5 1.2-5.3 2.5-10.7 3.8-16.1 0.9-3.3-0.1-6.9-3-10.8-15.4-21.1-78.6-44.9-157.8-48.3l0.9 3v0.1c0.8 3.1 1.4 6.3 1.9 9.6l0.1 1.4 0.2 0.9v0.2l0.2 2.5 0.5 4.6v3.1l0.1 1.8v0.2l-0.1 2V187.4l-0.3 4.8-0.1 2.2v0.2l-0.1 1-0.1 1.2v0.2l-0.3 2.1-0.9 7.3v0.1l-1.5 7.7-0.3 1.6v0.2l-0.2 0.9-0.3 1.3c-0.9 3.8-1.9 7.8-3 11.8l-0.7 2.3-0.6 2.2v0.1l-6 18.2-5.2 14.9z" fill="#404040" p-id="2217"></path><path d="M575.9 123.1l1 1.1 1.1 1.9-2.1-3zM511.7 112c35.8 0.2 53.9 2.2 62.5 9.3l1 1-2.4 15.8c-6.1 38-16.4 80.2-53 119.6l12.3 2.7-8.1 2.3c-10.5 2.3-19.5 1.4-32.9-2.3l-0.9-0.3 11.1-2.5c-36.6-39.4-46.9-81.6-53-119.6l-2.4-15.8 2.5-2.5c9-6.7 27.5-7.9 63.3-7.7z" fill="#EE9C98" p-id="2218"></path><path d="M512.8 266c-6.4 0-13.3-1.2-22.2-3.7l-0.9-0.3c-0.9-0.3-1.5-1.1-1.4-2s0.7-1.7 1.6-1.9l7.7-1.7c-34.4-38.3-44.9-79.3-51.1-118.1l-2.4-15.8c-0.1-0.6 0.1-1.3 0.6-1.7l2.5-2.5 0.2-0.2c9.4-7.2 28.3-8.4 64.4-8.2 39.2 0.2 55.3 2.7 63.7 9.7l0.2 0.2 1 1c0.1 0.1 0.2 0.3 0.3 0.4 0.1 0.1 0.3 0.2 0.4 0.3l1 1.1c0.1 0.1 0.2 0.2 0.3 0.4l1.1 1.9c0.5 0.9 0.2 2.1-0.7 2.7-0.9 0.6-2 0.3-2.6-0.5l-1.7 11.1C568.6 177 558 218 523.7 256.3l9 2c0.9 0.2 1.5 1 1.6 1.9s-0.6 1.7-1.4 2l-8.1 2.3h-0.1c-4.1 1-7.9 1.5-11.9 1.5z m-14-5.7c9.8 2.2 16.8 2.2 24.8 0.5l0.4-0.1-4.6-1c-0.7-0.2-1.3-0.7-1.5-1.4-0.2-0.7 0-1.4 0.4-2 35.5-38.2 46.2-79.5 52.5-118.5L573 123l-0.2-0.3c-8.6-7.1-28.9-8.6-61.1-8.7-34.3-0.2-53.4 0.9-61.9 7.3l-1.7 1.7 2.2 14.7c6.3 39 16.9 80.3 52.5 118.5 0.5 0.5 0.7 1.3 0.4 2-0.2 0.7-0.8 1.2-1.5 1.4l-2.9 0.7z" fill="#404040" p-id="2219"></path><path d="M537.9 261.8l29.7 6.5-25.1 50.3-1.6-0.5c-4.1-1-10.1-1.8-16.7-2.3l-13.1-0.5 26.8-53.5z" fill="#F3BDBA" p-id="2220"></path><path d="M543.6 321l-3.1-1c-3.8-1-9.5-1.7-16.3-2.2l-16.1-0.6 28.8-57.7 33.8 7.4-27.1 54.1z m-29.2-7.6l10 0.4c7.2 0.5 13.1 1.3 17.1 2.3h0.1l23.1-46.4L539 264l-24.6 49.4z" fill="#404040" p-id="2221"></path><path d="M483.3 261.6l26.7 53.6-13.5 0.3c-6.6 0.4-12.5 1.1-16.5 2.1l-1.5 0.5-24.9-50 29.7-6.5z" fill="#F3BDBA" p-id="2222"></path><path d="M477.5 320.7l-26.9-53.9 33.8-7.4 28.8 57.9-16.7 0.4c-6.7 0.4-12.3 1.1-16 2l-3 1z m-21-51.1l23 46.1c3.9-1 9.8-1.8 16.9-2.2l10.5-0.2-24.6-49.4-25.8 5.7z" fill="#404040" p-id="2223"></path><path d="M533.8 356l9.2 209-31.9 54-33.1-54 10.3-208.2 0.4 0.3c9 5 34.9 4.6 43.8-0.2l1.3-0.9z" fill="#F3BDBA" p-id="2224"></path><path d="M511.1 622.9L476 565.6v-0.6l10.5-211.9 3.3 2.3c8.3 4.5 33.1 4.4 41.7-0.2l4.3-3 9.4 213.3-0.3 0.5-33.8 56.9zM480 564.5l31 50.6 29.9-50.6-9-205.1c-9.9 4.2-31.5 4.4-41.9 0.6l-10 204.5z" fill="#404040" p-id="2225"></path><path d="M574.9 122.3c-6.1 41.8-13.5 90.4-55.4 135.4l55.8 12.3c17.2-45.8 36.8-100.2-0.4-147.7z" fill="#FFFFFF" p-id="2226"></path><path d="M575.4 272h-0.4l-55.8-12.3c-0.7-0.2-1.3-0.7-1.5-1.4s0-1.4 0.4-2c41.7-44.9 49-94.5 54.8-134.3 0.1-0.8 0.7-1.4 1.5-1.6 0.8-0.2 1.6 0.1 2.1 0.7 38.4 49 17.5 104.8 0.8 149.6-0.4 0.8-1.1 1.3-1.9 1.3z m-52-15.5l50.7 11.2c15.9-42.4 34.8-94.6 2.1-140.3-5.7 38.8-13.9 85.8-52.8 129.1z" fill="#404040" p-id="2227"></path><path d="M445.8 122.3c6.1 41.8 13.5 90.4 55.4 135.4L445.3 270c-17.1-45.8-36.8-100.2 0.5-147.7z" fill="#FFFFFF" p-id="2228"></path><path d="M445.3 272c-0.8 0-1.6-0.5-1.9-1.3-16.8-44.8-37.7-100.6 0.8-149.6 0.5-0.6 1.3-0.9 2.1-0.7 0.8 0.2 1.3 0.9 1.5 1.6 5.8 39.9 13.1 89.4 54.8 134.3 0.5 0.5 0.7 1.3 0.4 2-0.2 0.7-0.8 1.2-1.5 1.4L445.7 272h-0.4z m-0.8-144.6c-32.7 45.7-13.8 97.9 2.1 140.3l50.7-11.2c-38.9-43.3-47.1-90.3-52.8-129.1z" fill="#404040" p-id="2229"></path><path d="M267.1 716c25.3 25.6 129.1 40.6 174.9 39.4l-2.1 21.6-21.3-1.5C328 768.2 264 750.3 264 729.4l3.1-13.4z" fill="#FFFFFF" p-id="2230"></path><path d="M439.9 779h-0.1l-21.3-1.5c-75.7-6.1-156.5-22-156.5-48.1 0-0.2 0-0.3 0.1-0.5l3.1-13.4c0.2-0.7 0.7-1.3 1.4-1.5 0.7-0.2 1.5 0 2 0.5 24.4 24.7 127.1 40 173.4 38.9 0.6 0 1.1 0.2 1.5 0.6 0.4 0.4 0.6 1 0.5 1.6l-2.1 21.6c-0.1 1-1 1.8-2 1.8zM266 729.6c0.2 8.9 15.1 18.1 41.9 26 27.6 8.1 65.9 14.2 110.9 17.9l19.3 1.4 1.7-17.4c-45.5 0.6-142.2-13.2-171.5-37.7l-2.3 9.8z" fill="#404040" p-id="2231"></path><path d="M753.8 715l3.2 14.5c0 20.9-64.2 38.7-155 46.1l-20.4 1.4-1.6-19.2c80.1-4.9 140.8-15.3 173.8-42.8z" fill="#FFFFFF" p-id="2232"></path><path d="M581.6 779c-1 0-1.9-0.8-2-1.8L578 758c0-0.5 0.1-1.1 0.5-1.5 0.4-0.4 0.9-0.7 1.4-0.7 92.1-5.6 143.8-18.3 172.6-42.3 0.5-0.4 1.3-0.6 1.9-0.4 0.7 0.2 1.2 0.8 1.3 1.5l3.2 14.5v0.4c0 26.1-81 41.9-156.8 48.1l-20.4 1.4h-0.1z m0.6-19.3l1.3 15.2 18.4-1.3c45.1-3.6 83.5-9.8 111.2-17.9 26.9-7.8 41.8-17.1 42-26l-2.5-11.1c-29.8 23.1-81.2 35.5-170.4 41.1z" fill="#404040" p-id="2233"></path><path d="M611 327h80v10h-80z" fill="#EE9C98" p-id="2234"></path><path d="M495.2 359h30.4l5.4 203.9-20.6 34.1-22.4-34.6 7.2-203.4z" fill="#F3BDBA" p-id="2235"></path><path d="M510.4 599c-0.7 0-1.3-0.3-1.7-0.9l-9.7-14.9c-0.6-0.9-0.3-2.2 0.6-2.8 0.9-0.6 2.2-0.3 2.8 0.6l7.9 12.2 3.6-6c0.6-0.9 1.8-1.2 2.7-0.7 0.9 0.6 1.2 1.8 0.7 2.7L512 598c-0.2 0.6-0.9 1-1.6 1z m13.6-22.5c-0.4 0-0.7-0.1-1-0.3-0.9-0.6-1.2-1.8-0.7-2.7l6.7-11.1-0.4-13.8c0-1.1 0.8-2 1.9-2.1 1.1 0 2 0.8 2.1 1.9l0.4 14.4c0 0.4-0.1 0.8-0.3 1.1l-7 11.6c-0.4 0.7-1 1-1.7 1z m-31.9-5.8c-0.7 0-1.3-0.3-1.7-0.9l-4.1-6.3c-0.2-0.3-0.3-0.7-0.3-1.2l0.7-20.5c0-1.1 1-2 2.1-1.9 1.1 0 2 1 1.9 2.1l-0.7 19.9 3.7 5.7c0.6 0.9 0.3 2.2-0.6 2.8-0.3 0.2-0.7 0.3-1 0.3z m38.1-36.2c-1.1 0-2-0.9-2-1.9l-0.7-28c0-1.1 0.8-2 1.9-2.1 1.1 0 2 0.8 2.1 1.9l0.7 28c0 1.2-0.8 2.1-2 2.1z m-40.9-6.6s-0.1 0 0 0c-1.2 0-2-1-2-2.1l1-28c0-1.1 1-2 2.1-1.9 1.1 0 2 1 1.9 2.1l-1 28c0 1.1-0.9 1.9-2 1.9z m39.7-37.4c-1.1 0-2-0.9-2-1.9l-0.7-28c0-1.1 0.8-2 1.9-2.1 1.1 0 2 0.8 2.1 1.9l0.7 28c0.1 1.2-0.8 2.1-2 2.1 0.1 0 0 0 0 0z m-38.1-6.6c-0.1 0-0.1 0 0 0-1.2 0-2-1-2-2.1l1-28c0-1.1 1-2 2.1-1.9 1.1 0 2 1 1.9 2.1l-1 28c-0.1 1.1-1 1.9-2 1.9z m37-37.3c-1.1 0-2-0.9-2-1.9l-0.7-28c0-1.1 0.8-2 1.9-2.1 1.1 0 2 0.8 2.1 1.9l0.7 28c0 1.1-0.9 2-2 2.1z m-35.5-6.6c-1.2 0-2-1-2-2.1l1-28c0-1.1 1-2 2.1-1.9 1.1 0 2 1 1.9 2.1l-1 28c0 1-0.9 1.9-2 1.9z m34.3-37.4c-1.1 0-2-0.9-2-1.9l-0.7-28c0-1.1 0.8-2 1.9-2.1 1.1 0 2 0.8 2.1 1.9l0.7 28c0 1.1-0.8 2.1-2 2.1zM494 396c-0.1 0-0.1 0 0 0-1.2 0-2-1-2-2.1l1-28c0-1.1 1-2 2.1-1.9 1.1 0 2 1 1.9 2.1l-1 28c-0.1 1.1-1 1.9-2 1.9z m29.2-35h-28c-1.1 0-2-0.9-2-2s0.9-2 2-2h28c1.1 0 2 0.9 2 2s-0.9 2-2 2z" fill="#404040" p-id="2236"></path><path d="M475.4 263.4l26 52.1-4.9 0.1c-3.3 0.2-6.4 0.4-9.2 0.8l-0.5 0.1-25-50.1 13.6-3z" fill="#F3BDBA" p-id="2237"></path><path d="M487.6 318.3c-1 0-1.9-0.7-2-1.8-0.1-1.1 0.6-2.1 1.7-2.2 2.7-0.3 5.7-0.6 9-0.8h1.8l-4.9-9.9c-0.5-1-0.1-2.2 0.9-2.7s2.2-0.1 2.7 0.9l6.3 12.7c0.3 0.6 0.3 1.3-0.1 1.9-0.4 0.6-1 1-1.7 1l-4.9 0.1c-3.1 0.2-6 0.4-8.6 0.7 0 0.1-0.1 0.1-0.2 0.1z m-7.6-13.4c-0.7 0-1.4-0.4-1.8-1.1l-12.5-25.1c-0.5-1-0.1-2.2 0.9-2.7s2.2-0.1 2.7 0.9l12.5 25.1c0.5 1 0.1 2.2-0.9 2.7-0.3 0.2-0.6 0.2-0.9 0.2z m7.9-14.5c-0.7 0-1.4-0.4-1.8-1.1l-11.8-23.7-9 2c-1.1 0.2-2.1-0.4-2.4-1.5-0.2-1.1 0.4-2.1 1.5-2.4l10.5-2.3c0.9-0.2 1.8 0.2 2.2 1.1l12.5 25.1c0.5 1 0.1 2.2-0.9 2.7-0.2 0.1-0.5 0.1-0.8 0.1z" fill="#404040" p-id="2238"></path><path d="M546.3 263.6l13.6 3-25 50.4-1.3-0.2c-2.8-0.4-6-0.7-9.3-0.9l-3.9-0.2 25.9-52.1z" fill="#F3BDBA" p-id="2239"></path><path d="M534.9 319h-0.4l-1.7-0.3c-1.1-0.1-1.9-1.1-1.7-2.2s1.1-1.9 2.2-1.7l0.4 0.1 11-22.1c0.5-1 1.7-1.4 2.7-0.9 1 0.5 1.4 1.7 0.9 2.7L536.6 318c-0.3 0.5-1 1-1.7 1z m-13-4.2c-0.3 0-0.6-0.1-0.9-0.2-1-0.5-1.4-1.7-0.9-2.7l12.5-25.1c0.5-1 1.7-1.4 2.7-0.9 1 0.5 1.4 1.7 0.9 2.7l-12.5 25.1c-0.4 0.6-1.1 1.1-1.8 1.1z m31.8-33.6c-0.3 0-0.6-0.1-0.9-0.2-1-0.5-1.4-1.7-0.9-2.7L557 268l-9.6-2.1-4.2 8.4c-0.5 1-1.7 1.4-2.7 0.9-1-0.5-1.4-1.7-0.9-2.7l4.9-9.8c0.4-0.8 1.3-1.3 2.2-1.1l13.6 3c0.6 0.1 1.1 0.5 1.4 1.1s0.3 1.2 0 1.8l-6.3 12.6c-0.3 0.7-1 1.1-1.7 1.1z" fill="#404040" p-id="2240"></path><path d="M474.1 321.7l11.3 32.7c3.3 9.1 47.1 8.4 50.2 0l11.3-32.7c3.2-8.2-76.7-9.6-72.8 0z" fill="#F3BDBA" p-id="2241"></path><path d="M509.8 363h-0.2c-5.5 0-23.5-0.6-26.1-7.9l-11.3-32.7c-0.3-0.8-0.8-2.9 1.5-4.6 6.1-4.7 29.8-4.8 36.9-4.8 13.9 0.1 31.8 1.6 36.6 5.2 2.3 1.7 1.7 3.7 1.5 4.2L537.5 355c-2.8 7.7-24.6 8-27.7 8zM476 321.1l11.3 32.7c0.9 2.5 9 5.2 22.3 5.2s23.2-2.7 24.2-5.3l11.1-32.4c-3.1-2.8-27-5.3-48.7-4.1-14.6 0.9-19.4 3-20.2 3.9z m69 0z" fill="#404040" p-id="2242"></path></svg>